<svg width="720" height="520" viewBox="0 0 720 520" fill="none" xmlns="http://www.w3.org/2000/svg">
<defs>
<linearGradient id="bg" x1="70" y1="50" x2="650" y2="470" gradientUnits="userSpaceOnUse">
<stop stop-color="#102748"/>
<stop offset="1" stop-color="#0A1528"/>
</linearGradient>
<linearGradient id="line1" x1="90" y1="120" x2="640" y2="120" gradientUnits="userSpaceOnUse">
<stop stop-color="#FFBA75"/>
<stop offset="1" stop-color="#77BFFF"/>
</linearGradient>
<linearGradient id="line2" x1="90" y1="160" x2="640" y2="160" gradientUnits="userSpaceOnUse">
<stop stop-color="#77BFFF"/>
<stop offset="1" stop-color="#FF9F72"/>
</linearGradient>
<linearGradient id="bars" x1="150" y1="312" x2="580" y2="312" gradientUnits="userSpaceOnUse">
<stop stop-color="#57A9FF"/>
<stop offset="1" stop-color="#9EDBFF"/>
</linearGradient>
</defs>
<rect x="8" y="8" width="704" height="504" rx="28" fill="url(#bg)" stroke="rgba(255,255,255,0.12)"/>
<rect x="42" y="34" width="636" height="54" rx="14" fill="rgba(255,255,255,0.06)" stroke="rgba(255,255,255,0.1)"/>
<circle cx="72" cy="61" r="8" fill="#FF9D74"/>
<circle cx="98" cy="61" r="8" fill="#FFC46B"/>
<circle cx="124" cy="61" r="8" fill="#69B7FF"/>
<rect x="150" y="48" width="178" height="25" rx="12.5" fill="rgba(255,255,255,0.08)"/>
<rect x="503" y="48" width="120" height="24" rx="12" fill="rgba(105,183,255,0.18)"/>
<rect x="42" y="112" width="300" height="150" rx="24" fill="rgba(255,255,255,0.05)" stroke="rgba(255,255,255,0.09)"/>
<path d="M86 214C125 214 139 152 184 152C231 152 242 214 289 214" stroke="url(#line1)" stroke-width="12" stroke-linecap="round"/>
<path d="M86 160C126 160 139 222 184 222C230 222 244 160 289 160" stroke="url(#line2)" stroke-width="12" stroke-linecap="round"/>
<g stroke="#FFD29C" stroke-width="7" stroke-linecap="round">
<line x1="108" y1="180" x2="108" y2="194"/>
<line x1="136" y1="171" x2="136" y2="203"/>
<line x1="165" y1="164" x2="165" y2="210"/>
<line x1="194" y1="165" x2="194" y2="209"/>
<line x1="223" y1="172" x2="223" y2="202"/>
<line x1="252" y1="180" x2="252" y2="194"/>
</g>
<rect x="364" y="112" width="314" height="150" rx="24" fill="rgba(255,255,255,0.05)" stroke="rgba(255,255,255,0.09)"/>
<path d="M396 229V155" stroke="#385E8C" stroke-width="2"/>
<path d="M396 229H650" stroke="#385E8C" stroke-width="2"/>
<g fill="url(#bars)">
<circle cx="430" cy="208" r="5"/>
<circle cx="446" cy="202" r="5"/>
<circle cx="465" cy="196" r="5"/>
<circle cx="482" cy="190" r="5"/>
<circle cx="498" cy="184" r="5"/>
<circle cx="515" cy="162" r="5"/>
<circle cx="526" cy="152" r="5"/>
<circle cx="540" cy="147" r="5"/>
<circle cx="554" cy="176" r="5"/>
<circle cx="570" cy="185" r="5"/>
<circle cx="587" cy="180" r="5"/>
<circle cx="603" cy="160" r="5"/>
<circle cx="620" cy="132" r="5"/>
</g>
<circle cx="620" cy="132" r="12" fill="rgba(255,183,106,0.22)" stroke="#FFB76A"/>
<rect x="42" y="286" width="636" height="190" rx="24" fill="rgba(255,255,255,0.05)" stroke="rgba(255,255,255,0.09)"/>
<path d="M77 432V324" stroke="#385E8C" stroke-width="2"/>
<path d="M77 432H645" stroke="#385E8C" stroke-width="2"/>
<g fill="url(#bars)">
<circle cx="100" cy="410" r="4"/><circle cx="112" cy="406" r="4"/><circle cx="125" cy="402" r="4"/><circle cx="138" cy="405" r="4"/><circle cx="150" cy="400" r="4"/><circle cx="163" cy="398" r="4"/><circle cx="176" cy="388" r="4"/><circle cx="188" cy="392" r="4"/><circle cx="201" cy="389" r="4"/><circle cx="214" cy="370" r="4"/><circle cx="226" cy="366" r="4"/><circle cx="239" cy="359" r="4"/><circle cx="252" cy="363" r="4"/><circle cx="264" cy="350" r="4"/><circle cx="277" cy="342" r="4"/><circle cx="290" cy="334" r="4"/><circle cx="302" cy="336" r="4"/><circle cx="315" cy="329" r="4"/><circle cx="328" cy="323" r="4"/><circle cx="340" cy="336" r="4"/><circle cx="353" cy="342" r="4"/><circle cx="366" cy="332" r="4"/><circle cx="378" cy="339" r="4"/><circle cx="391" cy="328" r="4"/><circle cx="404" cy="340" r="4"/><circle cx="416" cy="349" r="4"/><circle cx="429" cy="360" r="4"/><circle cx="442" cy="370" r="4"/><circle cx="454" cy="382" r="4"/><circle cx="467" cy="386" r="4"/><circle cx="480" cy="392" r="4"/><circle cx="492" cy="398" r="4"/><circle cx="505" cy="406" r="4"/><circle cx="518" cy="410" r="4"/><circle cx="530" cy="396" r="4"/><circle cx="543" cy="352" r="4"/><circle cx="556" cy="308" r="4"/><circle cx="569" cy="291" r="4"/><circle cx="582" cy="301" r="4"/><circle cx="595" cy="336" r="4"/><circle cx="607" cy="362" r="4"/><circle cx="620" cy="381" r="4"/>
</g>
<circle cx="556" cy="308" r="13" fill="rgba(255,183,106,0.18)" stroke="#FFB76A"/>
<circle cx="569" cy="291" r="16" fill="rgba(255,183,106,0.12)" stroke="#FFB76A"/>
</svg>